<?xml version="1.0" encoding="UTF-8" standalone="no"?>
<!-- Created with Inkscape (http://www.inkscape.org/) -->

<svg
   xmlns:dc="http://purl.org/dc/elements/1.1/"
   xmlns:cc="http://creativecommons.org/ns#"
   xmlns:rdf="http://www.w3.org/1999/02/22-rdf-syntax-ns#"
   xmlns:svg="http://www.w3.org/2000/svg"
   xmlns="http://www.w3.org/2000/svg"
   xmlns:sodipodi="http://sodipodi.sourceforge.net/DTD/sodipodi-0.dtd"
   xmlns:inkscape="http://www.inkscape.org/namespaces/inkscape"
   width="744.09448819"
   height="1052.3622047"
   id="svg2"
   version="1.1"
   inkscape:version="0.48.4 r9939"
   sodipodi:docname="Masonic_music.svg"
   inkscape:export-filename="/home/slawson/Pictures/Masonic_music.png"
   inkscape:export-xdpi="90"
   inkscape:export-ydpi="90">
  <defs
     id="defs4">
    <linearGradient
       id="linearGradient2893">
      <stop
         id="stop2895"
         offset="0"
         style="stop-color:white;stop-opacity:0.3137255;" />
      <stop
         style="stop-color:white;stop-opacity:0.25098041;"
         offset="0.19"
         id="stop2897" />
      <stop
         id="stop2901"
         offset="0.60000002"
         style="stop-color:#6b6b6b;stop-opacity:0.1254902;" />
      <stop
         id="stop2899"
         offset="1"
         style="stop-color:black;stop-opacity:0.1254902;" />
    </linearGradient>
  </defs>
  <sodipodi:namedview
     id="base"
     pagecolor="#ffffff"
     bordercolor="#666666"
     borderopacity="1.0"
     inkscape:pageopacity="0.0"
     inkscape:pageshadow="2"
     inkscape:zoom="0.98994949"
     inkscape:cx="381.01113"
     inkscape:cy="477.34153"
     inkscape:document-units="px"
     inkscape:current-layer="g3137"
     showgrid="false"
     inkscape:window-width="1106"
     inkscape:window-height="883"
     inkscape:window-x="1920"
     inkscape:window-y="32"
     inkscape:window-maximized="0" />
  <metadata
     id="metadata7">
    <rdf:RDF>
      <cc:Work
         rdf:about="">
        <dc:format>image/svg+xml</dc:format>
        <dc:type
           rdf:resource="http://purl.org/dc/dcmitype/StillImage" />
        <dc:title></dc:title>
      </cc:Work>
    </rdf:RDF>
  </metadata>
  <g
     inkscape:label="Layer 1"
     inkscape:groupmode="layer"
     id="layer1">
    <g
       id="g3137"
       transform="translate(20.203051,223.24371)">
      <path
         style="fill:#d1d1d1"
         d="m 275.96727,548.28261 -75.07431,-75.07432 -31.31559,67.32432 c -17.22357,37.02837 -31.88407,67.94006 -32.57889,68.69263 -1.51347,1.63928 -3.46807,0.68141 -3.42272,-1.67734 0.0179,-0.93004 12.57719,-34.09098 27.90958,-73.69098 l 27.87708,-72 -32.58732,-32.68339 c -35.99804,-36.10417 -34.3519,-33.64299 -25.40093,-37.97759 7.35736,-3.56288 16.62616,-3.18998 26.16908,1.05283 18.59334,8.26665 18.97318,8.38141 25.949,7.83954 3.60305,-0.27988 10.14424,-1.66972 14.53598,-3.08854 l 7.98499,-2.57967 3.25003,3.15006 c 1.78752,1.73253 3.41354,2.95581 3.61337,2.71841 0.19983,-0.23741 23.13327,-59.49235 50.9632,-131.67766 l 50.59988,-131.24601 -0.8958,-5.50399 c -2.64447,-16.24822 7.13717,-33.991539 22.78128,-41.323929 5.06407,-2.37353 6.919,-2.68006 16.21807,-2.68006 9.22627,0 11.16719,0.31506 16,2.59716 8.15874,3.85264 15.36295,10.862629 19.21943,18.701299 3.12707,6.35609 3.28198,7.21061 3.31072,18.2626 l 0.0301,11.5945 50.4061,130.68786 50.40611,130.68787 3.19495,-3.09668 3.19496,-3.09667 8.36879,2.69006 c 4.60283,1.47954 11.34781,2.92228 14.98884,3.2061 6.06946,0.47312 7.31703,0.20355 15,-3.24116 15.87981,-7.1198 20.86636,-8.6073 26.80091,-7.99479 5.48452,0.56607 11.92037,2.9791 15.57904,5.84115 1.92363,1.50479 0.75059,2.81687 -30.72147,34.36261 l -32.72142,32.79809 27.97147,72.44727 c 15.38431,39.846 27.97147,73.00694 27.97147,73.69098 0,1.81635 -1.89741,2.69178 -3.304,1.52442 -0.66901,-0.55524 -15.37919,-31.42548 -32.68928,-68.60054 l -31.47289,-67.59103 -75.01938,75.01445 c -41.26066,41.25795 -75.69365,75.01445 -76.51775,75.01445 -0.8241,0 -35.2818,-33.78344 -76.57268,-75.07431 z M 476.54325,415.11676 c 0,-0.41039 -9.0531,-20.21174 -20.11801,-44.003 l -20.118,-43.25684 -6.05267,-5.5 c -11.60196,-10.54259 -23.15673,-17.60538 -39.73794,-24.28962 -3.51762,-1.41803 -3.56971,-1.53311 -20.41761,-45.11059 -9.29005,-24.02892 -17.16367,-43.85746 -17.49695,-44.06344 -0.33327,-0.20597 -8.24534,19.45432 -17.58238,43.68954 l -16.97644,44.06404 -4,1.58143 c -15.82029,6.25464 -29.13835,14.44373 -40.25744,24.75375 -5.02215,4.65671 -6.17356,6.84412 -25.72678,48.87489 l -20.46933,44 62.22379,62.25001 62.22378,62.25001 62.25299,-62.24701 c 34.23915,-34.23585 62.25299,-62.58278 62.25299,-62.99317 z"
         id="path3155"
         inkscape:connector-curvature="0"
         sodipodi:nodetypes="scsscscssssscscscsssssscccccsssssscsssscssssscssssscssscccss" />
      <path
         style="fill:#000000"
         d="m 275.53654,547.88069 c -41.5092,-41.51193 -75.81365,-75.13387 -76.2321,-74.71542 -0.76114,0.76114 -56.71004,120.70032 -60.26497,129.19166 -2.41245,5.76241 -4.16272,7.76397 -5.56391,6.36278 -0.73535,-0.73535 0.29029,-4.33058 3.4111,-11.95715 8.12103,-19.84598 51.62612,-133.26687 51.62612,-134.59298 0,-0.71571 -14.5125,-15.83189 -32.25,-33.59152 l -32.25,-32.29024 2.5,-1.96301 c 3.13606,-2.46245 11.2389,-4.97601 15.9315,-4.94206 4.03829,0.0292 12.64343,2.95023 24.96602,8.47472 7.78544,3.49039 8.87878,3.72168 15,3.17322 3.63137,-0.32536 10.19907,-1.71987 14.59491,-3.09889 l 7.99243,-2.50732 3.55263,3.46906 3.55264,3.46906 51.15819,-132.75283 51.15819,-132.75284 -1.08852,-5.26391 c -3.0592,-14.7939 6.95355,-33.00722 21.97221,-39.967729 27.42022,-12.70811 58.99974,10.801109 54.19172,40.342759 l -0.91324,5.61111 49.06021,127.13889 c 26.98311,69.92638 49.96636,129.54515 51.07389,132.48614 l 2.01369,5.34725 3.65286,-3.56691 3.65285,-3.56692 7.98891,2.54314 c 4.3939,1.39873 10.96571,2.79525 14.60402,3.10339 6.43458,0.54496 6.96677,0.40111 19.5,-5.27093 11.97407,-5.41897 13.41506,-5.83348 20.38489,-5.86387 7.53809,-0.0329 11.87113,1.36184 16.29693,5.24564 1.6882,1.48145 -0.1694,3.54662 -30.69903,34.12941 l -32.49596,32.55254 25.30489,65.5 c 13.91769,36.025 26.65897,68.7218 28.31395,72.65955 3.07902,7.32602 3.03242,11.04036 -0.10584,8.43584 -0.84562,-0.7018 -1.83552,-2.24786 -2.19979,-3.4357 -0.36427,-1.18783 -12.59425,-27.80969 -27.17774,-59.15969 -14.58349,-31.35 -28.27385,-60.80292 -30.42303,-65.45093 l -3.90759,-8.45093 -75.70585,75.70093 c -41.63821,41.63551 -75.93086,75.70093 -76.20587,75.70093 -0.27502,0 -34.46211,-33.96431 -75.97131,-75.47624 z m 151.22376,-2.27126 c 49.16998,-49.16671 74.75248,-75.43196 74.75248,-76.7475 0,-1.35116 -24.33167,22.33004 -75,72.995 l -75,74.995 -74.87562,-74.87063 c -47.30061,-47.29746 -75.06579,-74.36494 -75.39198,-73.4975 -0.32191,0.85603 27.77985,29.71095 74.62314,76.62313 41.32672,41.3875 75.36449,75.25 75.63949,75.25 0.275,0 34.13862,-33.63637 75.25249,-74.7475 z m -69.53081,62.53348 5.27961,-5.21403 -4.18579,-4.26501 c -2.30219,-2.34575 -3.86092,-4.58988 -3.46385,-4.98696 0.39707,-0.39707 2.61072,1.16684 4.91923,3.47534 l 4.19728,4.19728 7.76759,-7.72203 7.76759,-7.72202 -6.69422,-6.74591 c -3.68182,-3.71025 -6.36869,-7.07144 -5.97082,-7.46931 0.39787,-0.39787 3.75906,2.289 7.46931,5.97082 l 6.74591,6.69422 7.72202,-7.76759 7.72203,-7.76759 -4.19728,-4.19728 c -2.3085,-2.30851 -3.8664,-4.52816 -3.46199,-4.93258 0.40442,-0.40441 2.62407,1.15349 4.93258,3.46199 l 4.19728,4.19728 7.76759,-7.72203 7.76759,-7.72202 -6.69422,-6.74591 c -3.68182,-3.71025 -6.36869,-7.07144 -5.97082,-7.46931 0.39787,-0.39787 3.75906,2.289 7.46931,5.97082 l 6.74591,6.69422 7.72202,-7.76759 7.72203,-7.76759 -4.19728,-4.19728 c -2.3085,-2.30851 -3.8664,-4.52816 -3.46199,-4.93258 0.40442,-0.40441 2.62407,1.15349 4.93258,3.46199 l 4.19728,4.19728 7.76759,-7.72203 7.76759,-7.72202 -6.69422,-6.74591 c -3.68182,-3.71025 -6.36869,-7.07144 -5.97082,-7.46931 0.39787,-0.39787 3.75906,2.289 7.46931,5.97082 l 6.74591,6.69422 7.72202,-7.76759 7.72203,-7.76759 -4.19728,-4.19728 c -2.3085,-2.30851 -3.8664,-4.52816 -3.46199,-4.93258 0.40442,-0.40441 2.62407,1.15349 4.93258,3.46199 l 4.19728,4.19728 7.76759,-7.72203 7.76759,-7.72202 -6.69422,-6.74591 c -3.68182,-3.71025 -6.36869,-7.07144 -5.97082,-7.46931 0.39787,-0.39787 3.75941,2.28935 7.4701,5.9716 l 6.74669,6.695 7.22494,-7.27348 c 3.97372,-4.00042 7.22494,-7.69393 7.22494,-8.2078 0,-0.51388 -1.65826,-2.63254 -3.68502,-4.70813 -4.93219,-5.05102 -3.36416,-6.24091 1.70338,-1.2926 2.1899,2.13839 3.98164,3.63802 3.98164,3.33253 0,-0.3055 -2.20049,-5.23433 -4.88999,-10.95295 -2.68949,-5.71863 -6.97896,-14.8817 -9.53216,-20.36239 l -4.64217,-9.96489 -63.22077,63.21489 c -49.8291,49.82447 -63.74909,63.21489 -65.71491,63.21489 -1.96473,0 -15.94335,-13.42562 -65.85527,-63.25 -34.84862,-34.7875 -63.54208,-62.8 -63.76324,-62.25 -0.22115,0.55 -4.39065,9.55 -9.26554,20 -4.8749,10.45 -8.65807,19.22469 -8.40706,19.49931 0.25102,0.27462 1.76287,-0.96288 3.35966,-2.75 2.7663,-3.09603 4.93145,-4.17269 4.93145,-2.45226 0,0.43838 -1.80566,2.56023 -4.01258,4.71523 l -4.01257,3.91817 7.7383,7.78396 7.73831,7.78396 6.7459,-6.69422 c 3.71025,-3.68182 7.07144,-6.36869 7.46931,-5.97082 0.39787,0.39787 -2.289,3.75906 -5.97082,7.46931 l -6.69422,6.74591 7.76759,7.72202 7.76759,7.72203 4.19728,-4.19728 c 2.30851,-2.3085 4.52816,-3.8664 4.93258,-3.46199 0.40441,0.40442 -1.15349,2.62407 -3.46199,4.93258 l -4.19728,4.19728 7.72203,7.76759 7.72202,7.76759 6.74591,-6.69422 c 3.71025,-3.68182 7.07144,-6.36869 7.46931,-5.97082 0.39787,0.39787 -2.289,3.75906 -5.97082,7.46931 l -6.69422,6.74591 7.76759,7.72202 7.76759,7.72203 4.19728,-4.19728 c 2.30851,-2.3085 4.52816,-3.8664 4.93258,-3.46199 0.40441,0.40442 -1.15349,2.62407 -3.46199,4.93258 l -4.19728,4.19728 7.72203,7.76759 7.72202,7.76759 6.74591,-6.69422 c 3.71025,-3.68182 7.07144,-6.36869 7.46931,-5.97082 0.39787,0.39787 -2.289,3.75906 -5.97082,7.46931 l -6.69422,6.74591 7.76759,7.72202 7.76759,7.72203 4.19728,-4.19728 c 2.30851,-2.3085 4.52816,-3.8664 4.93258,-3.46199 0.40441,0.40442 -1.15349,2.62407 -3.46199,4.93258 l -4.19728,4.19728 7.72203,7.76759 7.72202,7.76759 6.74591,-6.69422 c 3.71025,-3.68182 7.07144,-6.36869 7.46931,-5.97082 0.39787,0.39787 -2.289,3.75906 -5.97082,7.46931 l -6.69422,6.74591 7.76759,7.72202 7.76759,7.72203 4.19728,-4.19728 c 2.30851,-2.3085 4.52816,-3.8664 4.93258,-3.46199 0.40441,0.40442 -1.15141,2.622 -3.45737,4.92796 l -4.19267,4.19266 5.20753,5.27303 c 2.86413,2.90016 5.43374,5.27302 5.71023,5.27302 0.2765,0 2.87854,-2.34631 5.78232,-5.21402 z M 211.49434,438.85693 c 49.49193,-106.29559 52.41204,-112.27126 57.33319,-117.32581 8.06492,-8.28355 17.20387,-14.7775 29.15893,-20.71974 6.03552,-2.99995 11.47828,-5.45445 12.09501,-5.45445 0.61673,0 1.85816,-0.81418 2.75873,-1.8093 0.90057,-0.99511 9.55667,-22.25319 19.23578,-47.24016 17.2682,-44.57847 17.5748,-45.50235 16.34099,-49.24084 -0.69157,-2.09548 -1.5692,-4.00266 -1.95029,-4.23819 -0.38109,-0.23553 -1.67134,2.14953 -2.86723,5.30013 -1.19588,3.1506 -9.57423,24.40336 -18.61856,47.22836 l -16.44423,41.5 -8.1345,2.7995 c -16.33277,5.62095 -20.43356,8.21681 -33.79502,21.39275 -11.19065,11.03527 -15.77612,14.31866 -13.15368,9.41859 1.47921,-2.76393 66.05932,-170.04415 66.05932,-171.11178 0,-0.5229 -0.85241,-2.35239 -1.89423,-4.06554 l -1.89424,-3.11482 -2.01075,5.34065 c -1.10592,2.93736 -35.61726,92.41565 -76.69188,198.84065 -87.02648,225.48702 -79.85982,206.75962 -78.64095,205.49885 0.53112,-0.54937 24.43224,-51.39885 53.11361,-112.99885 z m 309.5699,50.75 c -13.31358,-34.5125 -48.90811,-126.78923 -79.09897,-205.0594 -48.16458,-124.86728 -55.05467,-142.08762 -56.2159,-140.5 -0.7279,0.99517 -1.57288,2.80274 -1.87774,4.01682 -0.36992,1.47319 10.16275,29.91188 31.66616,85.5 36.23893,93.68068 34.3703,88.73061 33.73517,89.36574 -0.25909,0.25908 -5.82362,-4.84175 -12.36562,-11.33518 -12.98663,-12.8902 -18.04927,-16.1546 -33.74464,-21.75859 l -8.98119,-3.20671 -24.08437,-60.82469 -24.08436,-60.82469 -3.35966,-0.86866 c -1.84781,-0.47776 -3.47655,-0.7305 -3.61942,-0.56165 -0.14287,0.16886 11.04985,29.48721 24.8727,65.1519 l 25.13246,64.84489 10.58344,4.72625 c 13.04144,5.82393 22.52765,12.04777 32.07428,21.04373 l 7.3162,6.89418 52.5,113.03743 c 28.875,62.17059 52.78304,113.05345 53.12898,113.07303 0.34595,0.0196 -10.26394,-28.2019 -23.57752,-62.7144 z m -104.80444,-5.497 c 40.83829,-40.83437 62.25298,-62.93501 62.25298,-64.24705 0,-1.35445 -20.49703,18.49508 -63.5,61.49405 l -63.5,63.49409 -63.36916,-63.36326 c -42.27883,-42.2749 -63.62265,-62.95309 -64.13083,-62.13085 -0.50437,0.81609 20.4796,22.47571 62.11618,64.11622 49.63727,49.64196 63.4043,62.8838 65.37786,62.8838 1.97316,0 15.61892,-13.11766 64.75297,-62.247 z m -2,-5 c 34.23914,-34.23585 62.25298,-62.81708 62.25298,-63.51384 0,-1.04226 -22.71272,-50.43342 -37.48487,-81.51473 -3.16186,-6.65271 -4.87388,-8.79824 -11.85533,-14.85734 -9.45724,-8.2078 -19.59481,-14.41685 -31.80605,-19.48055 l -8.64625,-3.58538 -17.35375,-44.89634 c -9.54456,-24.69298 -17.61442,-44.89825 -17.93301,-44.90058 -0.31859,-0.002 -8.40364,20.22188 -17.96678,44.94269 l -17.38752,44.94693 -4.53322,1.68671 c -15.13403,5.63103 -36.05233,19.41044 -43.14306,28.41943 -1.51511,1.925 -11.77612,22.85 -22.80224,46.5 l -20.04748,43 62.7268,62.75 c 34.49974,34.5125 62.95181,62.75 63.22681,62.75 0.275,0 28.51384,-28.01115 62.75297,-62.247 z m -253.23511,-52.74109 -29.68981,-29.70218 4.60325,-1.28883 c 6.66645,-1.86649 11.98752,-0.76043 24.77499,5.14985 10.59778,4.89823 11.79658,5.22474 19.29966,5.25652 5.66874,0.024 10.26802,-0.66142 15.783,-2.35216 l 7.78301,-2.38605 2.77171,2.65547 c 1.52445,1.46051 3.08459,2.65547 3.467,2.65547 1.65801,0 0.45993,-2.8513 -2.3153,-5.51013 l -3.01057,-2.88432 -7.73943,2.32192 c -4.25668,1.27706 -10.94921,2.54661 -14.87229,2.82122 -6.8806,0.48163 -7.53562,0.32062 -18.52078,-4.55258 -15.14321,-6.71779 -19.24696,-7.70485 -26.00644,-6.2552 -2.92263,0.6268 -6.39233,1.84625 -7.71043,2.70991 l -2.39656,1.57028 31.38354,31.40695 c 21.46899,21.48501 31.49438,30.88239 31.73439,29.7465 0.23006,-1.08877 -9.87115,-11.88673 -29.33894,-31.36264 z m 413.48809,-29.80689 c 0,-2.20486 -7.10728,-4.52354 -14,-4.56737 -5.81606,-0.037 -7.86359,0.57106 -19.4592,5.77859 -12.60706,5.66178 -13.15051,5.8075 -20,5.36271 -3.87244,-0.25148 -10.54625,-1.50049 -14.83068,-2.7756 l -7.78988,-2.31838 -3.46207,3.35557 c -2.29727,2.2266 -3.12718,3.69045 -2.46671,4.35092 0.66047,0.66047 1.9958,0.0369 3.96894,-1.85352 l 2.97359,-2.84888 7.78301,2.37154 c 5.1395,1.56604 10.33038,2.38306 15.283,2.40547 6.95683,0.0315 8.36265,-0.35475 19.41121,-5.33285 13.54671,-6.10368 17.29254,-6.88356 24.61961,-5.12583 l 5.20156,1.24784 -29.61619,29.62853 c -18.95217,18.96007 -29.61619,30.34429 -29.61619,31.61634 0,1.36008 9.78942,-7.7978 31,-29.0001 17.05,-17.04335 31,-31.57609 31,-32.29498 z m -379.03715,48.79498 2.17184,-5.5 -5.05424,4.9495 -5.05424,4.9495 2.19968,2.34145 c 2.02388,2.15432 2.25423,2.19832 2.8824,0.5505 0.3755,-0.98502 1.66005,-4.26595 2.85456,-7.29095 z m 317.84973,6.6995 2.16121,-2.3005 -5.05537,-4.9495 -5.05536,-4.9495 2.56847,6.86906 c 1.41266,3.77798 2.56847,7.04048 2.56847,7.25 0,0.79826 0.72266,0.30505 2.81258,-1.91956 z m -308.91645,-29.92785 4.91722,-12.72835 -3.34419,-2.93623 -3.34419,-2.93624 -6.31249,2.07889 c -4.52531,1.49032 -9.00209,2.09423 -15.81248,2.13308 -9.41093,0.0537 -9.6067,0.005 -20.88098,-5.22694 -11.43028,-5.30399 -19.27696,-7.16107 -22.11902,-5.23492 -1.2298,0.83348 -0.0645,2.46199 6.46943,9.04068 l 7.96943,8.02408 4.25961,-4.18048 c 2.34278,-2.29927 4.58447,-3.85561 4.98154,-3.45854 0.39707,0.39707 -1.16683,2.61072 -3.47533,4.91923 l -4.19728,4.19728 7.71573,7.76126 7.71573,7.76125 4.25961,-4.18048 c 2.34278,-2.29927 4.58447,-3.85561 4.98154,-3.45854 0.39707,0.39707 -1.16683,2.61072 -3.47533,4.91923 l -4.19728,4.19728 7.73024,7.77585 7.73023,7.77584 6.75553,-6.75744 c 6.34756,-6.34936 7.05247,-7.5261 11.67273,-19.48579 z m 323.90909,6.52988 c -5.45613,-5.55938 -4.06307,-6.95244 1.49631,-1.49631 l 4.2596,4.18048 7.71574,-7.76125 7.71573,-7.76126 -4.19728,-4.19728 c -2.3085,-2.30851 -3.87241,-4.52216 -3.47534,-4.91923 0.39708,-0.39707 2.63877,1.15927 4.98155,3.45854 l 4.2596,4.18048 7.91613,-7.96282 c 4.35387,-4.37956 7.56426,-8.31384 7.1342,-8.74286 -0.43005,-0.42901 -3.10606,-0.74897 -5.94669,-0.71103 -4,0.0534 -7.87103,1.28332 -17.16477,5.45347 -15.14264,6.7946 -21.46984,7.45538 -34.5,3.603 l -8.5,-2.51303 -3.18493,3.19378 -3.18492,3.19379 4.70425,12.24244 c 4.41454,11.48851 5.13263,12.67415 11.66043,19.25235 l 6.95619,7.00991 7.76734,-7.72178 7.76734,-7.72179 z M 282.63196,294.75248 c 2.95945,-1.5239 9.65582,-4.40209 14.88082,-6.39597 l 9.5,-3.62524 18.69394,-46.93717 c 10.28166,-25.81544 18.70192,-47.83717 18.71169,-48.93717 0.01,-1.1 -2.16505,-7.625 -4.83292,-14.5 -4.05149,-10.44054 -5.40442,-12.88044 -8.21169,-14.8091 -1.84856,-1.27001 -4.80713,-3.7049 -6.57461,-5.41087 l -3.21358,-3.10178 -0.93258,2.41088 c -0.51291,1.32598 -14.53263,37.51087 -31.15493,80.41087 -16.6223,42.9 -30.46436,78.9 -30.76013,80 -0.30689,1.14135 3.55176,-1.93557 8.9877,-7.16686 5.26728,-5.06898 11.93087,-10.40547 14.90629,-11.93759 z m 130.80339,-60.49674 c -17.11223,-44.21935 -31.34594,-80.9679 -31.63046,-81.66344 -0.35177,-0.85993 -1.68135,-0.21439 -4.15471,2.01722 -7.14231,6.44416 -13.19997,9.1713 -23.34098,10.50804 l -5.6091,0.73937 23.31443,58.85809 c 12.82293,32.37194 23.69328,59.2149 24.15634,59.65102 0.46305,0.43611 5.67898,2.67143 11.59096,4.96737 12.92341,5.01886 19.95761,9.58084 29.19598,18.93484 3.81977,3.86757 7.09031,6.88668 7.26786,6.70912 0.17756,-0.17755 -13.67809,-36.50229 -30.79032,-80.72163 z m -49.79048,-74.44542 c 8.47122,-2.98882 14.91115,-8.93859 19.97362,-18.45339 2.08799,-3.92431 2.39429,-5.84328 2.39429,-15 0,-9.442 -0.26836,-11.00841 -2.66329,-15.54565 -3.60163,-6.82334 -10.18924,-13.224439 -16.83671,-16.360029 -4.71844,-2.22566 -6.85296,-2.59432 -15.02103,-2.59432 -8.76993,0 -10.05526,0.263 -16.29302,3.33384 -13.54442,6.667899 -21.13436,21.622519 -18.66732,36.780619 3.59911,22.11379 25.93421,35.31141 47.11346,27.83893 z m -22.6717,-6.4969 c -18.23924,-7.01866 -24.18481,-30.76345 -11.35314,-45.34099 6.21946,-7.06568 12.65124,-10.006029 21.89275,-10.008469 8.4499,-0.002 13.2459,1.910009 19.92551,7.944639 8.32818,7.524 11.10694,22.34948 6.13077,32.70932 -6.47795,13.48636 -22.75377,20.0221 -36.59589,14.6955 z m 18.45308,-1.52343 c 10.90427,-3.23822 18.53045,-13.74264 18.45782,-25.42408 -0.0476,-7.65425 -1.81609,-12.2818 -6.80344,-17.8022 -5.17974,-5.73336 -11.57133,-8.53497 -19.57683,-8.58107 -23.65409,-0.13621 -35.64674,28.56472 -18.92352,45.28794 7.33729,7.3373 16.55449,9.57565 26.84597,6.51941 z m -14.69529,-12.09615 c -10.79224,-5.31928 -10.62394,-21.05752 0.28164,-26.33682 2.27239,-1.10005 5.12901,-2.00009 6.34802,-2.00009 3.6724,0 8.58559,2.53796 11.40906,5.89346 10.09634,11.99882 -3.89961,29.41234 -18.03872,22.44345 z m 12.74693,-2.17854 c 4.52589,-2.42726 7.46432,-8.05577 6.60287,-12.64769 -0.8831,-4.70736 -4.942,-9.24285 -9.49141,-10.60589 -3.20737,-0.96095 -4.44954,-0.8334 -8.24832,0.84698 -12.5489,5.55098 -8.59693,23.99461 5.18735,24.20909 1.38358,0.0215 4.06086,-0.78959 5.94951,-1.80249 z"
         id="path3139"
         inkscape:connector-curvature="0"
         sodipodi:nodetypes="ssssssscssssscccccssscsscccsssssscsssssscsssssscscsssscssscccssscccscscccssscccscscccssscccscscccssscssssssscssscscssscccssscccscscccssscccscscccssscccscscccssscccscscssssssssssssscssssscssssssssscsscccscscsscscsssscsssssssssscscscssscsssscsssscssscssssscsssssssscssscsssscssssscccsssscccsssscccsscsscssscccssscccsssscccssscssssscccsscccssscscssscssssssssscsssscsssssssssssssssssssssssssssssssss" />
      <g
         id="layer4"
         inkscape:label="Meubles"
         transform="matrix(0.46635605,0,0,0.46635605,211.50111,262.6436)"
         style="fill:#cccccc">
        <g
           id="g4612"
           inkscape:label="Piezas"
           transform="matrix(4.120175,0,0,4.4206371,6247.9313,-7827.3771)"
           style="fill:#cccccc;stroke:#000000;stroke-width:0.70294445999999999;stroke-miterlimit:4;stroke-opacity:1;stroke-dasharray:none" />
        <g
           id="g4614"
           inkscape:label="Muebles"
           transform="matrix(4.120175,0,0,4.4206371,6247.9313,-7827.3771)"
           style="fill:#cccccc;stroke:#000000;stroke-width:0.70294445999999999;stroke-miterlimit:4;stroke-opacity:1;stroke-dasharray:none" />
        <g
           id="g4616"
           inkscape:label="Ornamentos"
           transform="matrix(4.120175,0,0,4.4206371,6247.9313,-7827.3771)"
           style="fill:#cccccc;stroke:#000000;stroke-width:0.70294445999999999;stroke-miterlimit:4;stroke-opacity:1;stroke-dasharray:none" />
        <g
           inkscape:label="Escudo"
           id="g4620"
           transform="matrix(4.120175,0,0,4.4206371,250.03184,-4752.8806)"
           style="fill:#cccccc;stroke:#000000;stroke-width:0.70294445999999999;stroke-miterlimit:4;stroke-opacity:1;stroke-dasharray:none;display:inline" />
        <g
           id="g4622"
           inkscape:label="Piezas"
           style="fill:#cccccc;stroke:#000000;stroke-width:0.70294445999999999;stroke-miterlimit:4;stroke-opacity:1;stroke-dasharray:none;display:inline"
           transform="matrix(4.120175,0,0,4.4206371,482.52508,-5091.6782)" />
        <g
           id="g4624"
           inkscape:label="Ornamento"
           transform="matrix(4.120175,0,0,4.4206371,482.52508,-5091.6782)"
           style="fill:#cccccc;stroke:#000000;stroke-width:0.70294445999999999;stroke-miterlimit:4;stroke-opacity:1;stroke-dasharray:none" />
        <g
           id="g4626"
           inkscape:label="Borde 3px"
           style="fill:#cccccc;stroke:#000000;stroke-width:0.70294445999999999;stroke-miterlimit:4;stroke-opacity:1;stroke-dasharray:none;display:inline"
           transform="matrix(4.120175,0,0,4.4206371,482.52508,-5091.6782)" />
        <g
           id="g3681"
           style="fill:#cccccc">
          <path
             inkscape:connector-curvature="0"
             sodipodi:nodetypes="ccccc"
             id="path10534"
             d="m 146.04321,403.34916 308.32003,-0.018 -0.036,-6.65385 -307.89412,-0.0286 -0.3899,6.70049 z"
             style="fill:#cccccc;fill-opacity:1;fill-rule:evenodd;stroke:#000000;stroke-width:3.00000023999999987;stroke-linecap:butt;stroke-linejoin:miter;stroke-miterlimit:4;stroke-opacity:1;stroke-dasharray:none" />
          <path
             inkscape:connector-curvature="0"
             id="path10532"
             d="m 230.1968,132.43302 139.09608,0 0,-19.01139 -139.98208,0.95057 0.886,18.06082 z"
             style="fill:#cccccc;fill-opacity:1;fill-rule:evenodd;stroke:#000000;stroke-width:3.00000023999999987;stroke-linecap:butt;stroke-linejoin:miter;stroke-miterlimit:4;stroke-opacity:1;stroke-dasharray:none" />
          <path
             inkscape:connector-curvature="0"
             sodipodi:nodetypes="cccscccc"
             id="path10485"
             d="m 195.64423,432.81341 c 9.45028,-6.33716 18.90052,-12.67427 28.3508,-19.01143 -101.87124,-73.33882 -3.05276,-199.33807 13.44145,-274.87805 -0.1681,-57.027499 -34.96022,-56.561343 -56.09861,-48.776071 -30.05338,11.068701 -23.71029,77.479931 30.68826,39.706911 -2.37499,-7.06404 -5.54234,-14.42825 -19.76914,-15.92901 12.82261,-2.72055 24.15436,8.20727 21.98785,23.32271 -45.03627,116.19388 -150.825555,182.04705 -18.60061,295.56494 z"
             style="fill:#cccccc;fill-opacity:1;fill-rule:evenodd;stroke:#000000;stroke-width:3.00000023999999987;stroke-linecap:butt;stroke-linejoin:miter;stroke-miterlimit:4;stroke-opacity:1;stroke-dasharray:none" />
          <path
             inkscape:connector-curvature="0"
             sodipodi:nodetypes="ccssccc"
             id="path10487"
             d="m 221.33715,416.65368 c 6.49706,-1.58426 12.99412,-3.16858 19.49118,-4.75284 -38.09773,-29.83559 -52.74573,-68.42519 -48.32347,-94.39135 3.42902,-20.13445 21.85695,-29.45718 27.26151,-41.69518 6.31763,-14.30567 -2.8798,-20.85148 -13.93357,-17.90592 -8.23857,-0.61049 -16.88744,2.74079 -27.46483,24.71485 -23.71454,56.24133 4.60783,97.33182 42.96918,134.03044 z"
             style="fill:#cccccc;fill-opacity:1;fill-rule:evenodd;stroke:#000000;stroke-width:3.00000023999999987;stroke-linecap:butt;stroke-linejoin:miter;stroke-miterlimit:4;stroke-opacity:1;stroke-dasharray:none" />
          <path
             inkscape:connector-curvature="0"
             sodipodi:nodetypes="ccccccccccc"
             id="path10514"
             d="m 289.53049,423.34613 c -12.0314,-1.81361 -24.83258,-22.54724 -41.34702,-19.49249 l -57.00876,26.88618 0.62647,33.60776 -16.28825,13.44312 6.8912,10.08232 c 27.42446,-9.33338 51.77165,-6.83519 72.63901,-2.09803 l 4.41679,-12.01724 15.66173,8.06589 13.15589,-20.16469 1.25294,-38.31282 z"
             style="fill:#cccccc;fill-opacity:1;fill-rule:evenodd;stroke:#000000;stroke-width:3.00000023999999987;stroke-linecap:butt;stroke-linejoin:miter;stroke-miterlimit:4;stroke-opacity:1;stroke-dasharray:none" />
          <path
             inkscape:connector-curvature="0"
             sodipodi:nodetypes="ccccc"
             id="path10489"
             d="m 271.9893,474.09385 c 9.68291,-33.57005 -36.47022,-50.8833 -48.5514,-21.17291 12.41565,-5.3434 28.60267,11.70262 14.72204,20.50075 -20.12998,15.99524 -34.25933,-5.94102 -32.26323,-28.9027 16.83351,-44.12428 123.08981,-29.74726 66.09259,29.57486 z"
             style="fill:#cccccc;fill-opacity:1;fill-rule:evenodd;stroke:#000000;stroke-width:3.00000023999999987;stroke-linecap:butt;stroke-linejoin:miter;stroke-miterlimit:4;stroke-opacity:1;stroke-dasharray:none" />
          <path
             inkscape:connector-curvature="0"
             sodipodi:nodetypes="cccc"
             id="path10491"
             d="m 136.67179,291.93982 c -4.09174,-8.2871 -11.0112,-6.6821 -17.54115,-5.37722 -0.43266,-16.19204 16.49896,-30.15781 25.37204,-13.10706 -2.7147,6.16144 -5.11618,12.32284 -7.83089,18.48428 z"
             style="fill:#cccccc;fill-opacity:1;fill-rule:evenodd;stroke:#000000;stroke-width:3.00000023999999987;stroke-linecap:butt;stroke-linejoin:miter;stroke-miterlimit:4;stroke-opacity:1;stroke-dasharray:none" />
          <path
             inkscape:connector-curvature="0"
             sodipodi:nodetypes="cc"
             id="path10493"
             d="M 149.51446,319.83426 C 134.26759,279.41987 206.12113,202.55215 187.10261,192.1248"
             style="fill:#cccccc;fill-rule:evenodd;stroke:#000000;stroke-width:3.00000023999999987;stroke-linecap:butt;stroke-linejoin:miter;stroke-miterlimit:4;stroke-opacity:1;stroke-dasharray:none" />
          <path
             inkscape:connector-curvature="0"
             sodipodi:nodetypes="cccc"
             id="path10495"
             d="m 175.82619,212.62554 c 3.65439,-7.05763 7.30882,-14.11527 10.96321,-21.1729 -11.15064,-11.2545 -22.64885,-3.76135 -24.74557,10.75448 10.65407,-1.17138 14.81912,2.63023 13.78236,10.41842 z"
             style="fill:#cccccc;fill-opacity:1;fill-rule:evenodd;stroke:#000000;stroke-width:3.00000023999999987;stroke-linecap:butt;stroke-linejoin:miter;stroke-miterlimit:4;stroke-opacity:1;stroke-dasharray:none" />
          <path
             inkscape:connector-curvature="0"
             style="fill:#cccccc;fill-opacity:1;fill-rule:evenodd;stroke:#000000;stroke-width:3.00000023999999987;stroke-linecap:butt;stroke-linejoin:miter;stroke-miterlimit:4;stroke-opacity:1;stroke-dasharray:none"
             d="m 404.09826,432.81341 c -9.45028,-6.33716 -18.90052,-12.67427 -28.3508,-19.01143 101.87125,-73.33882 3.05276,-199.33807 -13.44145,-274.87805 0.1681,-57.027499 34.96022,-56.561343 56.09861,-48.776071 30.05338,11.068701 23.71029,77.479931 -30.68826,39.706911 2.375,-7.06404 5.54234,-14.42825 19.76914,-15.92901 -12.8226,-2.72055 -24.15436,8.20727 -21.98785,23.32271 45.03627,116.19388 150.82556,182.04705 18.60061,295.56494 z"
             id="path10516"
             sodipodi:nodetypes="cccscccc" />
          <path
             inkscape:connector-curvature="0"
             style="fill:#cccccc;fill-opacity:1;fill-rule:evenodd;stroke:#000000;stroke-width:3.00000023999999987;stroke-linecap:butt;stroke-linejoin:miter;stroke-miterlimit:4;stroke-opacity:1;stroke-dasharray:none"
             d="m 378.40535,416.65368 c -6.49707,-1.58426 -12.99413,-3.16858 -19.49119,-4.75284 38.09773,-29.83559 52.74574,-68.42519 48.32347,-94.39135 -3.42902,-20.13445 -21.85695,-29.45718 -27.26151,-41.69518 -6.31763,-14.30567 2.8798,-20.85148 13.93357,-17.90592 8.23858,-0.61049 16.88744,2.74079 27.46484,24.71485 23.71453,56.24133 -4.60784,97.33182 -42.96918,134.03044 z"
             id="path10518"
             sodipodi:nodetypes="ccssccc" />
          <path
             inkscape:connector-curvature="0"
             style="fill:#cccccc;fill-opacity:1;fill-rule:evenodd;stroke:#000000;stroke-width:3.00000023999999987;stroke-linecap:butt;stroke-linejoin:miter;stroke-miterlimit:4;stroke-opacity:1;stroke-dasharray:none"
             d="m 310.212,423.34613 c 12.0314,-1.81361 24.83258,-22.54724 41.34703,-19.49249 l 57.00876,26.88618 -0.62648,33.60776 16.28825,13.44312 -6.8912,10.08232 c -27.42446,-9.33338 -51.77164,-6.83519 -72.63901,-2.09803 l -4.41679,-12.01724 -15.66173,8.06589 -13.15589,-20.16469 -1.25294,-38.31282 z"
             id="path10520"
             sodipodi:nodetypes="ccccccccccc" />
          <path
             inkscape:connector-curvature="0"
             style="fill:#cccccc;fill-opacity:1;fill-rule:evenodd;stroke:#000000;stroke-width:3.00000023999999987;stroke-linecap:butt;stroke-linejoin:miter;stroke-miterlimit:4;stroke-opacity:1;stroke-dasharray:none"
             d="m 327.75319,474.09385 c -9.6829,-33.57005 36.47022,-50.8833 48.5514,-21.17291 -12.41565,-5.3434 -28.60266,11.70262 -14.72204,20.50075 20.12998,15.99524 34.25933,-5.94102 32.26323,-28.9027 -16.83351,-44.12428 -123.08981,-29.74726 -66.09259,29.57486 z"
             id="path10522"
             sodipodi:nodetypes="ccccc" />
          <path
             inkscape:connector-curvature="0"
             style="fill:#cccccc;fill-opacity:1;fill-rule:evenodd;stroke:#000000;stroke-width:3.00000023999999987;stroke-linecap:butt;stroke-linejoin:miter;stroke-miterlimit:4;stroke-opacity:1;stroke-dasharray:none"
             d="m 463.0707,291.93982 c 4.09174,-8.2871 11.01121,-6.6821 17.54115,-5.37722 0.43266,-16.19204 -16.49895,-30.15781 -25.37204,-13.10706 2.7147,6.16144 5.11619,12.32284 7.83089,18.48428 z"
             id="path10524"
             sodipodi:nodetypes="cccc" />
          <path
             inkscape:connector-curvature="0"
             style="fill:#cccccc;fill-rule:evenodd;stroke:#000000;stroke-width:3.00000023999999987;stroke-linecap:butt;stroke-linejoin:miter;stroke-miterlimit:4;stroke-opacity:1;stroke-dasharray:none"
             d="M 450.22803,319.83426 C 465.4749,279.41987 393.62136,202.55215 412.63988,192.1248"
             id="path10526"
             sodipodi:nodetypes="cc" />
          <path
             inkscape:connector-curvature="0"
             style="fill:#cccccc;fill-opacity:1;fill-rule:evenodd;stroke:#000000;stroke-width:3.00000023999999987;stroke-linecap:butt;stroke-linejoin:miter;stroke-miterlimit:4;stroke-opacity:1;stroke-dasharray:none"
             d="m 423.9163,212.62554 c -3.65439,-7.05763 -7.30882,-14.11527 -10.9632,-21.1729 11.15063,-11.2545 22.64884,-3.76135 24.74556,10.75448 -10.65407,-1.17138 -14.81912,2.63023 -13.78236,10.41842 z"
             id="path10528"
             sodipodi:nodetypes="cccc" />
          <path
             inkscape:connector-curvature="0"
             sodipodi:nodetypes="ccccc"
             id="path10497"
             d="m 265.46513,490.22339 73.29696,-0.67216 c -15.53328,-19.85808 -26.81149,-53.93734 -15.40224,-78.97605 -13.38297,9.40455 -30.60284,10.493 -45.77684,-0.19686 9.34827,26.29621 -0.44316,55.28396 -12.11788,79.84507 z"
             style="fill:#cccccc;fill-opacity:1;fill-rule:evenodd;stroke:#000000;stroke-width:3.00000023999999987;stroke-linecap:butt;stroke-linejoin:miter;stroke-miterlimit:4;stroke-opacity:1;stroke-dasharray:none" />
          <path
             inkscape:connector-curvature="0"
             id="path10536"
             d="m 257.23179,396.69172 0.88596,-265.20927"
             style="fill:#cccccc;fill-rule:evenodd;stroke:#000000;stroke-width:3.00000023999999987;stroke-linecap:butt;stroke-linejoin:miter;stroke-miterlimit:4;stroke-opacity:1;stroke-dasharray:none" />
          <path
             inkscape:connector-curvature="0"
             style="fill:#cccccc;fill-rule:evenodd;stroke:#000000;stroke-width:3.00000023999999987;stroke-linecap:butt;stroke-linejoin:miter;stroke-miterlimit:4;stroke-opacity:1;stroke-dasharray:none"
             d="m 273.71249,396.69172 0.88596,-265.20927"
             id="path10538" />
          <path
             inkscape:connector-curvature="0"
             id="path10542"
             d="m 290.19319,396.69172 0.88596,-265.20927"
             style="fill:#cccccc;fill-rule:evenodd;stroke:#000000;stroke-width:3.00000023999999987;stroke-linecap:butt;stroke-linejoin:miter;stroke-miterlimit:4;stroke-opacity:1;stroke-dasharray:none" />
          <path
             inkscape:connector-curvature="0"
             id="path10546"
             d="m 306.67389,396.69172 0.88596,-265.20927"
             style="fill:#cccccc;fill-rule:evenodd;stroke:#000000;stroke-width:3.00000023999999987;stroke-linecap:butt;stroke-linejoin:miter;stroke-miterlimit:4;stroke-opacity:1;stroke-dasharray:none" />
          <path
             inkscape:connector-curvature="0"
             style="fill:#cccccc;fill-rule:evenodd;stroke:#000000;stroke-width:3.00000023999999987;stroke-linecap:butt;stroke-linejoin:miter;stroke-miterlimit:4;stroke-opacity:1;stroke-dasharray:none"
             d="m 323.15459,396.69172 0.88596,-265.20927"
             id="path10548" />
          <path
             inkscape:connector-curvature="0"
             id="path10552"
             d="m 339.63529,396.69172 0.88596,-265.20927"
             style="fill:#cccccc;fill-rule:evenodd;stroke:#000000;stroke-width:3.00000023999999987;stroke-linecap:butt;stroke-linejoin:miter;stroke-miterlimit:4;stroke-opacity:1;stroke-dasharray:none" />
        </g>
      </g>
      <path
         style="fill:#020202"
         d="m 344.6937,444.56068 c -3.3664,-0.5233 -6.88169,-2.68728 -10.83708,-6.67123 -1.12449,-1.13261 -2.04453,-2.12614 -2.04453,-2.20783 0,-0.16711 7.23532,-3.97055 7.55322,-3.97055 0.11223,0 1.12903,1.18158 2.25956,2.62574 1.13052,1.44415 2.41709,3.08228 2.85903,3.64027 1.0233,1.29204 2.81679,2.49964 4.92248,3.31445 6.09669,2.35915 11.17385,0.90796 13.52648,-3.86622 0.891,-1.80811 1.67546,-4.97593 1.89663,-7.65904 l 0.13564,-1.64561 c -0.0809,-0.79991 -0.062,-1.61624 -0.12846,-2.25527 0.0986,-0.25688 -0.23408,-3.71732 -0.37046,-3.8537 -0.0386,-0.0386 -1.15193,0.37632 -2.47408,0.92201 -8.18295,3.37734 -18.56695,3.92066 -26.4899,1.38603 -5.75373,-1.84067 -10.29497,-5.64776 -13.31099,-11.15909 -1.87343,-3.4234 -3.41405,-8.75461 -3.79,-13.11496 l -0.22788,-2.64294 c -17.24562,0.16199 -17.18062,-1.61586 0.4739,-1.99467 l 0,-0.47635 c 0,-0.90671 1.02374,-4.0202 1.9863,-6.04093 1.91483,-4.01985 4.10413,-6.9431 8.71846,-11.64128 l 3.2394,-3.29827 -1.20715,-1.68841 c -0.66393,-0.92862 -1.61114,-2.51868 -2.10492,-3.53347 l -0.89777,-1.84507 c -0.20623,-0.73503 -0.49515,-1.5708 -0.6137,-2.19414 l -0.35782,-1.5019 c -0.54142,-2.27251 -0.85562,-5.90002 -0.71297,-8.23147 0.40303,-6.58707 2.94896,-12.3629 7.50338,-17.02258 l 1.72789,-1.76783 c 0.95335,-0.79644 1.61458,-1.1887 2.8138,-1.99467 l 2.07017,-0.98617 c 3.77583,-1.79869 7.46899,-2.60211 11.96753,-2.60344 4.41484,-10e-4 8.07608,0.85974 11.49359,2.70304 l 1.64371,0.88657 c 0.55894,0.56678 1.55191,0.99733 2.3587,1.99467 l 0.62258,0.748 c 3.15496,3.79053 4.8635,7.6232 5.3995,12.11241 0.59745,5.00382 -0.81301,10.33742 -3.77289,14.2671 l -0.97657,1.29654 c -1.30449,1.08857 -2.09639,1.76191 -3.32833,2.3936 l -1.17414,0.55805 c -2.70308,1.28473 -7.51676,1.88265 -10.14987,1.26073 -1.53988,-0.3637 -2.66628,-0.88815 -3.21813,-1.49835 -0.31647,-0.34993 -0.61005,-0.42016 -1.75638,-0.42016 l -1.37639,0 -0.53734,1.14693 c -0.47967,1.02385 -0.53623,1.37171 -0.52704,3.24134 0.008,1.72376 0.4147,5.35221 1.00025,8.93416 l 0.10729,0.65628 1.33019,-1.21887 c 3.78314,-3.46656 7.8485,-5.08818 12.71115,-5.07029 4.87018,0.0179 8.61813,1.57116 11.9685,4.96006 1.53072,1.54832 2.62991,3.0993 3.61812,5.10522 1.38108,2.80342 2.26568,6.43408 2.26568,9.29908 l 0,1.46987 c 22.65412,0.029 22.76312,2.12094 0.0181,1.99467 l -0.11218,0.74801 c -0.0617,0.41139 -0.28689,1.69791 -0.50042,2.85892 -1.08194,5.88261 -3.68495,10.96356 -7.75239,15.13224 l -1.66477,1.7062 -0.0574,3.49068 c -0.0316,1.91986 -0.18499,3.77379 -0.20523,4.13894 l -0.0471,0.84976 c -0.0101,0.36886 -0.17577,1.28945 -0.36988,1.79317 l -0.54233,1.92953 c -0.65381,2.32614 -2.00397,5.24221 -3.2092,6.93119 -0.95556,1.33909 -2.78779,3.12796 -4.19649,4.09717 -4.39053,3.02076 -11.20966,4.40539 -17.14903,3.48213 z m 13.82807,-26.10785 c 0.81241,-0.17218 2.20369,-0.60308 3.09174,-0.95756 1.27326,-0.50823 1.62795,-0.7382 1.67764,-1.08772 0.0804,-0.56534 -1.82706,-6.26939 -3.04725,-9.1126 -1.05693,-2.46281 -2.86173,-6.07703 -4.14293,-8.29647 l -0.86359,-1.496 -4.71405,-0.0534 -4.71407,-0.0534 -1.2804,1.94838 c -2.36584,3.60008 -4.01831,5.22689 -8.18506,8.05798 l -2.3499,1.59663 0.64571,0.83435 c 3.73039,4.82021 9.92746,8.07367 17.11918,8.98758 1.29306,0.16433 5.27404,-0.0521 6.76298,-0.36769 z m 11.28251,-10.26246 c 1.01245,-2.64955 1.52306,-5.14627 1.64529,-8.04495 l 0.11565,-2.74268 -5.23431,0 -5.23432,0 0.86631,1.00954 c 3.23492,3.76975 5.37738,7.24889 6.37903,10.3589 0.53094,1.64853 0.62471,1.61129 1.46235,-0.58081 z m -35.29436,-2.63845 c 1.65742,-1.10855 2.8588,-2.53102 3.93369,-4.65761 0.49428,-0.9779 1.34716,-3.14501 1.34716,-3.42306 0,-0.0377 -2.28889,-0.0685 -5.08641,-0.0685 -2.79753,0 -5.0863,0.0673 -5.08615,0.1496 1.4e-4,0.0823 0.22303,1.0691 0.4953,2.19294 0.70095,2.89327 2.24866,6.83295 2.68432,6.83295 0.0977,0 0.86814,-0.46184 1.71209,-1.02631 z M 340.4679,395.059 c 0.30309,-1.00177 0.51675,-3.20461 0.51752,-5.33574 8.5e-4,-2.3095 -0.2228,-4.03747 -0.95079,-7.34619 l -0.3436,-1.56164 -2.49334,-2.27477 -2.49333,-2.27477 -1.23682,1.28463 c -1.9727,2.04897 -3.24698,5.07293 -3.95276,9.3802 -0.29667,1.81054 -0.41913,8.08803 -0.16278,8.34438 0.0731,0.0731 2.58037,0.13297 5.57163,0.13297 5.00646,0 5.44705,-0.0277 5.54427,-0.34907 z m 13.28556,0.19578 c 0,-0.43582 -4.93486,-6.54743 -5.12955,-6.35273 -0.0472,0.0472 -0.21452,0.70751 -0.37178,1.46732 -0.15726,0.75981 -0.5546,2.17631 -0.88297,3.14777 -0.32837,0.97147 -0.59705,1.79434 -0.59705,1.82862 0,0.0343 1.5708,0.0623 3.49068,0.0623 1.91987,0 3.49067,-0.069 3.49067,-0.15329 z m 17.43673,-0.39524 c -0.59717,-2.64229 -1.66385,-5.14577 -3.1013,-7.27876 -1.16333,-1.72623 -3.60585,-4.2027 -5.17497,-5.2469 -3.31366,-2.20515 -5.6195,-2.4786 -9.11109,-1.0805 -1.40839,0.56395 -4.3731,2.32634 -4.82075,2.86574 -0.17183,0.20703 0.74575,1.26338 4.19503,4.8295 2.42823,2.51049 4.78548,4.99083 5.23832,5.51189 l 0.82337,0.94737 6.03768,1e-4 6.03768,9e-5 z m -32.4837,-22.14467 c -0.0655,-0.0656 -0.22159,-0.0168 -0.34676,0.10841 -0.17046,0.17046 -0.15711,0.31305 0.0532,0.56815 0.25995,0.31531 0.28567,0.30727 0.34676,-0.10841 0.0363,-0.24694 0.0123,-0.50261 -0.0532,-0.56815 z m -6.02257,-6.99885 0.5104,1.16827 0.23305,0.4488 c 0.46518,0.89584 2.67914,3.52384 2.90386,3.44691 0.12683,-0.0434 0.73237,-0.46648 1.34564,-0.94012 0.73247,-0.56571 1.1153,-1.00662 1.1158,-1.28505 2.8e-4,-0.23313 0.0569,-0.70437 0.12543,-1.04721 l 0.40962,-1.87 0.41241,-1.1991 0.71536,-1.3358 0,-1.9e-4 c 1.75686,-3.5861 5.73766,-7.45911 10.63381,-10.34584 l 1.36762,-0.80634 1.53791,0.32609 1.5379,0.32609 0.192,0.90754 c 0.1056,0.49914 0.53136,2.6264 0.94614,4.72723 l 0.75413,3.81971 0.81553,0.39621 c 1.79818,0.87362 4.1927,1.02035 5.78616,0.35456 1.57029,-0.6561 3.03484,-2.97631 3.60811,-5.71614 0.40142,-1.91853 1.32181,-5.3248 1.12016,-7.97329 -0.35745,-4.69486 -0.99351,-9.0191 -4.65382,-11.62372 -2.9889,-2.74493 -9.03613,-4.04894 -12.9835,-3.67043 -9.24704,0.92872 -15.90147,6.90471 -18.85778,13.83207 -1.83974,4.42751 -1.44103,12.1066 -0.33594,15.98687 l 0.3735,1.08283 z"
         id="path3321"
         inkscape:connector-curvature="0"
         sodipodi:nodetypes="sssssssssccsssssccssscssccsssccscsccsssccsssscssscsssssccssscssccssssssssscccsscssssssccssssssscsssssssccsscsssssssssscssssscccscssssscssccsccccccccsscsssssccccccccc" />
    </g>
  </g>
</svg>
